<?xml version="1.0" standalone="no"?>
<!DOCTYPE svg PUBLIC "-//W3C//DTD SVG 20010904//EN"
 "http://www.w3.org/TR/2001/REC-SVG-20010904/DTD/svg10.dtd">
<svg version="1.0" xmlns="http://www.w3.org/2000/svg"
 width="7558.000000pt" height="2589.000000pt" viewBox="0 0 7558.000000 2589.000000"
 preserveAspectRatio="xMidYMid meet">
<metadata>
Created by potrace 1.16, written by Peter Selinger 2001-2019
</metadata>
<g transform="translate(0.000000,2589.000000) scale(0.100000,-0.100000)"
fill="#000000" stroke="none">
<path d="M33070 18040 l0 -6140 960 0 960 0 0 3141 0 3142 57 71 c262 325 641
562 1072 671 322 82 781 98 1069 39 208 -43 419 -132 557 -236 303 -229 481
-589 549 -1111 33 -245 36 -516 36 -3114 l0 -2603 960 0 961 0 -4 2788 c-3
2006 -7 2823 -15 2917 -46 506 -106 828 -222 1175 -184 553 -469 965 -880
1271 -145 108 -217 152 -366 227 -409 204 -834 295 -1379 295 -261 0 -405 -13
-610 -54 -676 -135 -1289 -532 -1734 -1122 l-51 -68 0 2425 0 2426 -960 0
-960 0 0 -6140z"/>
<path d="M14871 22807 l-604 -605 113 -118 c594 -627 1091 -1437 1395 -2271
478 -1316 521 -2741 125 -4114 -194 -672 -534 -1372 -947 -1951 -902 -1265
-2234 -2189 -3706 -2573 -141 -36 -442 -105 -462 -105 -3 0 -5 1720 -5 3822
l0 3823 -850 -850 -850 -850 0 -3017 0 -3018 -42 0 c-76 0 -397 40 -604 75
-669 114 -1321 332 -1919 644 -552 288 -1089 673 -1510 1083 l-80 78 -605
-606 -605 -606 105 -100 c1269 -1212 2896 -1993 4630 -2222 216 -29 497 -56
578 -56 l52 0 0 -2432 -1 -2433 -86 -40 c-224 -103 -429 -250 -629 -449 -352
-351 -559 -752 -650 -1261 -15 -80 -19 -153 -19 -360 0 -292 15 -410 81 -638
223 -775 851 -1387 1627 -1586 230 -59 288 -66 587 -65 256 0 284 2 411 27
637 125 1170 483 1516 1018 376 582 466 1318 242 1984 -51 152 -167 389 -258
525 -248 373 -608 673 -1015 846 l-101 43 -3 2445 -2 2445 47 6 c108 15 438
78 583 111 1234 279 2361 827 3370 1638 303 244 721 638 963 909 1215 1360
1929 2996 2097 4802 154 1671 -201 3352 -1018 4815 -333 596 -792 1219 -1237
1677 l-110 114 -604 -604z m-4751 -19307 c449 -55 828 -347 994 -767 154 -388
93 -829 -160 -1166 -452 -602 -1325 -654 -1846 -109 -338 354 -431 866 -238
1314 210 488 731 791 1250 728z"/>
<path d="M24380 17630 l0 -5730 960 0 960 0 0 2440 0 2440 2305 0 2305 0 0
775 0 775 -2305 0 -2305 0 0 1745 0 1745 2705 0 2705 0 0 770 0 770 -3665 0
-3665 0 0 -5730z"/>
<path d="M53517 20569 c-981 -54 -1790 -402 -2409 -1038 -550 -564 -919 -1283
-1088 -2121 -86 -424 -105 -655 -105 -1255 0 -493 6 -601 46 -910 99 -752 359
-1441 751 -1992 598 -840 1380 -1316 2408 -1468 288 -43 783 -59 1086 -35
1055 83 1879 486 2509 1230 711 839 1047 1953 1011 3350 -14 525 -59 882 -162
1298 -221 895 -703 1673 -1359 2195 -689 548 -1614 805 -2688 746z m541 -1550
c53 -5 148 -22 211 -35 534 -119 908 -432 1181 -989 151 -307 237 -579 300
-948 48 -284 55 -395 55 -902 -1 -436 -3 -497 -23 -665 -59 -476 -162 -843
-338 -1194 -295 -590 -721 -909 -1334 -997 -131 -19 -472 -16 -610 5 -404 61
-681 196 -940 455 -147 147 -247 289 -357 506 -213 421 -325 875 -364 1474
-15 241 -7 854 15 1046 74 661 267 1211 563 1609 262 351 641 569 1098 630
123 17 412 20 543 5z"/>
<path d="M63540 20573 c-196 -10 -411 -42 -590 -87 -642 -162 -1230 -580
-1641 -1166 l-76 -109 -6 52 c-3 29 -27 291 -52 582 -25 292 -48 540 -51 553
l-4 22 -875 0 -875 0 0 -4260 0 -4260 960 0 960 0 0 3116 0 3115 32 47 c215
317 570 578 963 707 254 84 440 110 775 110 297 -1 431 -19 633 -86 526 -174
776 -521 884 -1229 16 -107 17 -306 20 -2947 l3 -2833 960 0 960 0 -3 2908
c-3 3142 0 2949 -53 3312 -140 961 -505 1612 -1134 2025 -386 253 -840 391
-1395 425 -160 9 -268 10 -395 3z"/>
<path d="M71661 20570 c-1060 -60 -1881 -407 -2498 -1054 -298 -314 -493 -670
-563 -1032 -27 -140 -43 -347 -34 -446 l7 -78 923 0 924 0 4 23 c3 12 7 58 10
102 10 147 67 312 153 442 53 81 174 206 264 273 229 170 538 264 914 277 423
14 788 -73 1050 -250 94 -64 241 -212 305 -309 139 -208 208 -426 230 -724 5
-76 10 -304 10 -506 l0 -366 -982 -5 c-971 -4 -1035 -6 -1363 -42 -1421 -156
-2404 -781 -2734 -1738 -79 -230 -118 -457 -128 -747 -22 -668 141 -1255 473
-1701 369 -496 926 -802 1649 -908 210 -31 356 -41 605 -41 375 0 641 41 939
145 554 193 1114 627 1493 1156 66 92 60 98 78 -76 29 -267 127 -707 226
-1017 l16 -48 973 0 972 0 -44 143 c-128 411 -211 876 -243 1372 -6 101 -10
913 -10 2220 0 1264 -4 2127 -10 2235 -44 754 -279 1334 -724 1784 -446 451
-1079 753 -1816 866 -304 47 -753 68 -1069 50z m1699 -5475 l0 -624 -55 -108
c-165 -324 -511 -635 -940 -843 -227 -110 -450 -178 -710 -217 -169 -25 -540
-24 -680 1 -510 92 -821 389 -890 850 -47 322 32 637 227 901 69 93 225 249
318 317 278 204 620 314 1050 338 74 4 483 8 908 8 l772 2 0 -625z"/>
<path d="M41340 20411 c0 -5 691 -1890 1536 -4188 846 -2298 1539 -4188 1542
-4200 5 -25 -286 -746 -378 -938 -150 -312 -390 -644 -568 -786 -129 -104
-288 -175 -472 -210 -92 -18 -350 -16 -588 5 -112 10 -205 16 -207 15 -6 -7
-217 -1481 -212 -1485 7 -7 295 -70 452 -99 226 -41 374 -55 601 -55 473 0
829 72 1172 236 245 116 432 257 624 468 361 397 633 831 836 1336 43 108
3547 9845 3560 9893 4 16 -51 17 -1046 17 l-1051 0 -44 -137 c-24 -76 -443
-1415 -933 -2975 -908 -2898 -906 -2894 -928 -2820 -2 9 -46 202 -96 429 l-91
412 -808 2543 -809 2543 -1046 3 c-632 1 -1046 -2 -1046 -7z"/>
<path d="M24070 6780 c-322 -68 -514 -309 -471 -591 22 -142 87 -242 210 -323
110 -72 186 -105 421 -183 349 -114 477 -188 537 -311 24 -49 28 -69 28 -142
-1 -103 -23 -158 -96 -230 -96 -94 -232 -140 -415 -140 -216 0 -402 75 -501
203 -38 49 -73 151 -73 213 l0 44 -85 0 -85 0 0 -57 c0 -134 49 -251 141 -343
158 -157 425 -236 709 -209 310 29 535 195 581 428 15 79 6 201 -20 272 -63
165 -257 303 -563 399 -324 101 -438 152 -515 227 -72 71 -97 130 -98 228 0
71 4 88 33 147 51 104 139 172 277 214 91 28 288 25 375 -5 85 -29 146 -69
209 -136 63 -67 96 -136 112 -233 l12 -73 81 3 81 3 -3 70 c-9 257 -204 468
-484 526 -119 24 -282 24 -398 -1z"/>
<path d="M29458 6790 c-256 -46 -452 -200 -503 -395 -45 -174 2 -352 124 -468
111 -105 232 -162 581 -271 331 -104 481 -233 484 -416 1 -98 -26 -163 -94
-231 -101 -101 -201 -139 -386 -146 -160 -7 -247 10 -363 68 -148 74 -220 167
-243 313 l-13 76 -84 0 -84 0 7 -76 c19 -205 110 -337 303 -437 159 -82 343
-115 537 -97 191 18 338 77 447 177 110 102 151 200 151 355 -1 212 -103 351
-348 473 -51 25 -194 79 -318 120 -271 89 -385 144 -455 221 -65 71 -85 131
-79 233 6 96 35 157 112 229 66 63 142 99 246 118 98 17 179 17 265 -1 209
-44 364 -202 382 -388 l6 -67 83 0 84 0 0 55 c0 250 -184 469 -455 541 -69 18
-315 27 -387 14z"/>
<path d="M72150 6786 c-147 -31 -253 -84 -344 -171 -104 -99 -146 -199 -146
-348 0 -112 16 -177 61 -253 77 -129 241 -224 577 -333 335 -109 461 -181 527
-302 22 -42 29 -70 33 -129 5 -102 -21 -173 -92 -243 -102 -102 -231 -147
-421 -147 -317 0 -550 160 -572 393 l-6 67 -83 0 -84 0 0 -49 c0 -271 200
-475 536 -546 106 -23 312 -23 419 0 193 41 349 141 428 276 74 126 76 323 5
463 -69 136 -262 258 -558 351 -395 126 -506 189 -568 323 -21 46 -26 71 -26
132 1 123 57 220 168 292 79 51 170 78 286 85 289 16 513 -142 553 -393 l12
-74 82 0 83 0 0 43 c0 66 -27 174 -60 245 -43 93 -160 207 -260 255 -41 19
-102 43 -135 52 -83 23 -328 29 -415 11z"/>
<path d="M26850 5750 l0 -1020 90 0 90 0 0 1020 0 1020 -90 0 -90 0 0 -1020z"/>
<path d="M31960 6695 l0 -75 355 0 355 0 0 -945 0 -945 90 0 90 0 0 945 0 945
345 0 345 0 0 75 0 75 -790 0 -790 0 0 -75z"/>
<path d="M35280 5750 l0 -1020 615 0 615 0 0 75 0 75 -525 0 -525 0 0 420 0
420 455 0 455 0 0 75 0 75 -455 0 -455 0 0 375 0 375 520 0 520 0 0 75 0 75
-610 0 -610 0 0 -1020z"/>
<path d="M38280 5750 l0 -1020 90 0 90 0 2 865 3 864 367 -862 367 -862 64 -3
64 -3 213 498 c116 274 278 652 358 841 l147 343 3 -841 2 -840 90 0 90 0 0
1020 0 1021 -107 -3 -107 -3 -373 -880 c-205 -484 -374 -884 -375 -888 -2 -5
-172 392 -378 882 l-375 891 -117 0 -118 0 0 -1020z"/>
<path d="M42725 6758 c-211 -569 -735 -2005 -735 -2015 0 -10 21 -13 89 -13
l88 0 103 285 103 285 440 -2 441 -3 100 -282 101 -283 93 0 c50 0 92 1 92 3
0 2 -162 449 -361 993 -199 544 -366 1001 -371 1017 -10 27 -11 27 -94 27 -59
0 -86 -4 -89 -12z m285 -781 c100 -280 180 -511 177 -513 -2 -2 -173 -3 -380
-2 l-375 3 191 528 c124 341 194 521 198 510 4 -10 88 -247 189 -526z"/>
<path d="M47490 5749 l0 -1021 383 5 c422 5 467 11 613 77 184 83 350 259 423
449 55 142 63 221 59 535 -4 271 -5 284 -32 371 -98 323 -346 544 -666 595
-36 5 -226 10 -422 10 l-358 0 0 -1021z m840 835 c228 -81 395 -277 451 -529
10 -42 13 -136 13 -310 -1 -287 -10 -343 -86 -495 -58 -116 -179 -239 -288
-292 -126 -62 -172 -69 -482 -75 l-278 -5 0 872 0 872 293 -4 292 -4 85 -30z"/>
<path d="M50830 5750 l0 -1020 615 0 615 0 0 75 0 75 -525 0 -525 0 0 420 0
420 455 0 455 0 0 75 0 75 -455 0 -455 0 0 375 0 375 520 0 520 0 0 75 0 75
-610 0 -610 0 0 -1020z"/>
<path d="M55730 6768 c0 -2 170 -460 378 -1018 l378 -1015 85 -3 84 -2 374
1007 c206 555 376 1014 379 1021 3 10 -17 12 -93 10 l-97 -3 -299 -820 c-165
-451 -310 -856 -324 -900 -13 -44 -24 -78 -25 -75 -26 92 -97 291 -345 974
l-300 826 -97 0 c-54 0 -98 -1 -98 -2z"/>
<path d="M59130 5750 l0 -1020 610 0 610 0 0 75 0 75 -525 0 -525 0 0 420 0
420 455 0 455 0 0 75 0 75 -455 0 -455 0 0 375 0 375 525 0 525 0 0 75 0 75
-610 0 -610 0 0 -1020z"/>
<path d="M62120 5750 l0 -1020 90 0 90 0 2 866 3 867 575 -867 575 -866 87 0
88 0 0 1020 0 1020 -90 0 -90 0 0 -862 0 -863 -573 862 -572 863 -92 0 -93 0
0 -1020z"/>
<path d="M65330 6695 l0 -75 360 0 360 0 0 -945 0 -945 85 0 85 0 0 945 0 945
345 0 345 0 0 75 0 75 -790 0 -790 0 0 -75z"/>
<path d="M69052 6688 c-16 -46 -183 -501 -371 -1011 -188 -510 -341 -932 -341
-937 0 -6 38 -10 89 -10 l89 0 15 38 c8 20 54 148 103 284 l89 248 440 0 440
0 101 -282 101 -283 91 -3 c51 -1 92 1 92 5 0 4 -166 463 -369 1018 l-368
1010 -85 3 -86 3 -30 -83z m310 -710 l185 -518 -382 0 -382 0 144 398 c79 218
165 455 190 525 25 70 49 124 53 120 4 -4 91 -241 192 -525z"/>
</g>
</svg>
